<?xml version="1.0" encoding="utf-8"?>
<!-- Generator: Adobe Illustrator 16.0.0, SVG Export Plug-In . SVG Version: 6.00 Build 0)  -->
<!DOCTYPE svg PUBLIC "-//W3C//DTD SVG 1.1//EN" "http://www.w3.org/Graphics/SVG/1.1/DTD/svg11.dtd">
<svg version="1.1" id="Layer_1" xmlns="http://www.w3.org/2000/svg" xmlns:xlink="http://www.w3.org/1999/xlink" x="0px" y="0px"
	 width="376.85px" height="238.186px" viewBox="0 0 376.85 238.186" enable-background="new 0 0 376.85 238.186"
	 xml:space="preserve">
<g>
	<path fill="#ED1C2E" d="M188.426,81.513c1.862,5.975,5.987,6.663,10.71,4.779l-1.511-5.867c1.601,2.625,5.913,5.75,11.551,1.938
		l-2.926-5.35c2.226,2.288,7.913,3.288,11.413-1.125L201.75,58.763c3.851,2.6,8.351,5.472,17.95,5.472l95.125-0.047
		c7.775,0,12.275-3.575,14.625-10.9c6.65,0,14.4-0.675,16.801-11.4c12.475,0,15.225-5.275,16.399-11.6
		c6.101-0.1,14.2-4.013,14.2-14.288l-157.563,0.083c-5.476,0-8.79,4.738-7.073,10.072c0.973,3.021-0.34,5.833-2.99,6.937
		c-3.093,1.287-6.475-0.479-7.249-3.366L196.888,3.95C196.313,1.363,194.563,0,191.926,0h-8.088c-2.15,0-3.787,1.69-3.787,3.84
		l5.149,0.008c0,1.327-0.825,2.09-1.837,2.09l-8.538-0.005c-1.7,0-3.012,1.492-3.287,3.017l-1.038,6.615l0.625,0.005
		c0.438-1.275,1.063-1.709,3.191-1.709l9.021-0.016l-6.66,16.563c-1.245,2.759-4.49,3.986-7.249,2.741
		c-2.759-1.245-3.986-4.49-2.741-7.249c2.745-6.083-0.313-9.922-6.438-9.922L0,15.963c0,10.275,8.1,14.225,14.2,14.325
		c1.175,6.325,3.925,11.6,16.4,11.6c2.4,10.725,10.15,11.4,16.8,11.4c2.35,7.325,6.85,10.9,14.625,10.9l95.125,0.047
		c9.6,0,14.1-2.872,17.95-5.472l-15.913,17.125c3.5,4.413,9.188,3.413,11.413,1.125l-2.925,5.35
		c5.637,3.813,9.949,0.688,11.55-1.938l-1.511,5.867C182.438,88.175,186.563,87.488,188.426,81.513"/>
	<path fill="#00539F" d="M93.235,238.186l-3.511-22.117H64.972l-4.02,22.117H9.039l36.105-136.625h66.622l33.725,136.625H93.235z
		 M85.388,187.077l-3.272-27.17c-1.341-8.517-2.234-17.214-3.352-25.73h-0.447c-1.341,8.517-2.458,17.214-4.246,25.73l-4.221,27.17
		H85.388z"/>
	<path fill="#00539F" d="M144.501,238.186V101.561h41.563c66.465,0,81.489,14.047,81.489,46.388
		c0,31.237-10.987,48.075-72.422,48.075v42.162H144.501z M198.93,130.892l-3.798,0.205v35.72
		c14.178,0.616,23.038-5.747,23.038-17.244C218.17,139.719,211.588,130.892,198.93,130.892z"/>
	<path fill="#00539F" d="M266.823,238.186V101.561h51.642v104.372h46.803v32.253H266.823z"/>
</g>
</svg>
